<svg width="16" height="16" viewBox="0 0 16 16" fill="none" xmlns="http://www.w3.org/2000/svg">
<path d="M13.4545 6.72727C13.4545 11.1818 7.72727 15 7.72727 15C7.72727 15 2 11.1818 2 6.72727C2 5.20831 2.60341 3.75155 3.67748 2.67748C4.75155 1.60341 6.20831 1 7.72727 1C9.24624 1 10.703 1.60341 11.7771 2.67748C12.8511 3.75155 13.4545 5.20831 13.4545 6.72727Z" stroke="#52668f" stroke-width="2" stroke-linecap="round" stroke-linejoin="round"/>
<path d="M7.72727 8.63642C8.78163 8.63642 9.63636 7.78169 9.63636 6.72733C9.63636 5.67297 8.78163 4.81824 7.72727 4.81824C6.67291 4.81824 5.81818 5.67297 5.81818 6.72733C5.81818 7.78169 6.67291 8.63642 7.72727 8.63642Z" stroke="#52668f" stroke-width="2" stroke-linecap="round" stroke-linejoin="round"/>
</svg>
